<?xml version="1.0" encoding="UTF-8" standalone="no"?>
<!-- Created with Inkscape (http://www.inkscape.org/) -->

<svg
   xmlns:dc="http://purl.org/dc/elements/1.1/"
   xmlns:cc="http://creativecommons.org/ns#"
   xmlns:rdf="http://www.w3.org/1999/02/22-rdf-syntax-ns#"
   xmlns:svg="http://www.w3.org/2000/svg"
   xmlns="http://www.w3.org/2000/svg"
   xmlns:sodipodi="http://sodipodi.sourceforge.net/DTD/sodipodi-0.dtd"
   xmlns:inkscape="http://www.inkscape.org/namespaces/inkscape"
   id="svg2"
   version="1.1"
   inkscape:version="0.48.5 r10040"
   width="811.235"
   height="606.29375"
   xml:space="preserve"
   sodipodi:docname="FreeVector-Table-Vector.ai"><metadata
     id="metadata8"><rdf:RDF><cc:Work
         rdf:about=""><dc:format>image/svg+xml</dc:format><dc:type
           rdf:resource="http://purl.org/dc/dcmitype/StillImage" /><dc:title></dc:title></cc:Work></rdf:RDF></metadata><defs
     id="defs6"><clipPath
       clipPathUnits="userSpaceOnUse"
       id="clipPath16"><path
         d="m 0,485.035 648.988,0 L 648.988,0 0,0 0,485.035 z"
         id="path18" /></clipPath><clipPath
       clipPathUnits="userSpaceOnUse"
       id="clipPath24"><path
         d="M -4.88281e-4,485.036 648.988,485.036 648.988,0 -4.88281e-4,0 l 0,485.036 z"
         id="path26" /></clipPath><clipPath
       clipPathUnits="userSpaceOnUse"
       id="clipPath28"><path
         d="m 648.988,0 -648.989,0 0,485.036 648.989,0 0,-485.036 z"
         id="path30" /></clipPath><linearGradient
       x1="0"
       y1="0"
       x2="1"
       y2="0"
       gradientUnits="userSpaceOnUse"
       gradientTransform="matrix(0,1093.9553,1093.9553,0,324.49414,-197.22559)"
       spreadMethod="pad"
       id="linearGradient32"><stop
         style="stop-opacity:1;stop-color:#d1d3d4"
         offset="0"
         id="stop34" /><stop
         style="stop-opacity:1;stop-color:#f1f1f2"
         offset="0.461533"
         id="stop36" /><stop
         style="stop-opacity:1;stop-color:#f1f1f2"
         offset="0.461533"
         id="stop38" /><stop
         style="stop-opacity:1;stop-color:#939598"
         offset="0.747253"
         id="stop40" /><stop
         style="stop-opacity:1;stop-color:#d1d3d4"
         offset="0.950546"
         id="stop42" /><stop
         style="stop-opacity:1;stop-color:#d1d3d4"
         offset="1"
         id="stop44" /></linearGradient><clipPath
       clipPathUnits="userSpaceOnUse"
       id="clipPath64"><path
         d="m 0,485.035 648.988,0 L 648.988,0 0,0 0,485.035 z"
         id="path66" /></clipPath><clipPath
       clipPathUnits="userSpaceOnUse"
       id="clipPath410"><path
         d="m 0,485.035 648.988,0 L 648.988,0 0,0 0,485.035 z"
         id="path412" /></clipPath><clipPath
       clipPathUnits="userSpaceOnUse"
       id="clipPath482"><path
         d="m 0,485.035 648.988,0 L 648.988,0 0,0 0,485.035 z"
         id="path484" /></clipPath><clipPath
       clipPathUnits="userSpaceOnUse"
       id="clipPath566"><path
         d="m 61.4248,391.797 489.7202,0 0,-138.137 -489.7202,0 0,138.137 z"
         id="path568" /></clipPath></defs><sodipodi:namedview
     pagecolor="#ffffff"
     bordercolor="#666666"
     borderopacity="1"
     objecttolerance="10"
     gridtolerance="10"
     guidetolerance="10"
     inkscape:pageopacity="0"
     inkscape:pageshadow="2"
     inkscape:window-width="715"
     inkscape:window-height="1037"
     id="namedview4"
     showgrid="false"
     inkscape:zoom="0.38925025"
     inkscape:cx="405.61749"
     inkscape:cy="303.14688"
     inkscape:window-x="1201"
     inkscape:window-y="18"
     inkscape:window-maximized="0"
     inkscape:current-layer="g10" /><g
     id="g10"
     inkscape:groupmode="layer"
     inkscape:label="FreeVector-Table-Vector"
     transform="matrix(1.25,0,0,-1.25,0,606.29375)"><g
       id="g60"><g
         id="g62"
         clip-path="url(#clipPath64)"><g
           id="g68"
           transform="translate(104.2183,-17.1357)"><path
             d="m 0,0 c -0.016,0.699 -0.633,1.19 -1.317,1.19 -1.506,0 -1.744,-1.285 -1.744,-2.426 0,-1.059 0.461,-2.156 1.605,-2.156 0.932,0 1.409,0.538 1.536,1.41 l 2.616,0 c -0.237,-2.2 -1.951,-3.472 -4.138,-3.472 -2.474,0 -4.313,1.698 -4.313,4.218 0,2.617 1.664,4.49 4.313,4.49 2.046,0 3.867,-1.08 4.059,-3.254 L 0,0 z"
             style="fill:#000000;fill-opacity:1;fill-rule:nonzero;stroke:none"
             id="path70" /></g><g
           id="g72"
           transform="translate(111.2158,-13.9443)"><path
             d="m 0,0 c -2.541,0 -4.311,-1.879 -4.311,-4.344 0,-2.464 1.77,-4.33 4.311,-4.33 2.542,0 4.331,1.866 4.331,4.33 C 4.331,-1.879 2.542,0 0,0"
             style="fill:#000000;fill-opacity:1;fill-rule:nonzero;stroke:none"
             id="path74" /></g><g
           id="g76"
           transform="translate(97.1162,-20.0449)"><path
             d="m 0,0 c -0.7,0 -1.186,-0.517 -1.186,-1.191 0,-0.679 0.486,-1.192 1.186,-1.192 0.699,0 1.188,0.513 1.188,1.192 C 1.188,-0.517 0.699,0 0,0"
             style="fill:#000000;fill-opacity:1;fill-rule:nonzero;stroke:none"
             id="path78" /></g><g
           id="g80"
           transform="translate(115.7339,-14.4697)"><path
             d="m 0,0 2.552,0 0,-1.1 0.031,0 c 0.48,0.805 1.328,1.332 2.304,1.332 1.005,0 1.901,-0.324 2.334,-1.298 0.633,0.847 1.422,1.298 2.505,1.298 2.551,0 2.828,-1.933 2.828,-3.466 l 0,-4.79 -2.629,0 0,4.715 c 0,0.866 -0.416,1.375 -1.096,1.375 -1.129,0 -1.237,-0.864 -1.237,-2.166 l 0,-3.924 -2.629,0 0,4.561 c 0,0.942 -0.279,1.529 -0.988,1.529 -0.945,0 -1.346,-0.542 -1.346,-2.18 l 0,-3.91 L 0,-8.024 0,0 z"
             style="fill:#000000;fill-opacity:1;fill-rule:nonzero;stroke:none"
             id="path82" /></g><g
           id="g84"
           transform="translate(62.3008,-22.4111)"><path
             d="m 0,0 -2.996,0 -2.648,7.939 2.707,0 1.453,-5.25 0.03,0 1.469,5.25 2.648,0 L 0,0 z"
             style="fill:#000000;fill-opacity:1;fill-rule:nonzero;stroke:none"
             id="path86" /></g><g
           id="g88"
           transform="translate(66.377,-19.0791)"><path
             d="m 0,0 c 0.045,-1.085 0.676,-1.804 1.775,-1.804 0.625,0 1.237,0.293 1.48,0.871 l 2.432,0 c -0.473,-1.834 -2.171,-2.63 -3.944,-2.63 -2.584,0 -4.344,1.563 -4.344,4.221 0,2.43 1.945,4.176 4.283,4.176 C 4.526,4.834 5.95,2.693 5.828,0 L 0,0 z"
             style="fill:#000000;fill-opacity:1;fill-rule:nonzero;stroke:none"
             id="path90" /></g><g
           id="g92"
           transform="translate(77.7656,-17.3789)"><path
             d="m 0,0 c -0.016,0.672 -0.611,1.147 -1.269,1.147 -1.455,0 -1.682,-1.244 -1.682,-2.341 0,-1.027 0.445,-2.08 1.547,-2.08 0.9,0 1.357,0.521 1.482,1.362 l 2.521,0 c -0.227,-2.124 -1.881,-3.351 -3.99,-3.351 -2.385,0 -4.156,1.637 -4.156,4.069 0,2.523 1.603,4.328 4.156,4.328 C 0.581,3.134 2.34,2.095 2.524,0 L 0,0 z"
             style="fill:#000000;fill-opacity:1;fill-rule:nonzero;stroke:none"
             id="path94" /></g><g
           id="g96"
           transform="translate(85.3037,-16.1572)"><path
             d="m 0,0 -1.603,0 0,-3.609 c 0,-0.627 0.368,-0.766 0.931,-0.766 0.214,0 0.445,0.033 0.672,0.033 l 0,-1.912 c -0.471,-0.013 -0.943,-0.076 -1.422,-0.076 -2.215,0 -2.781,0.642 -2.781,2.801 l 0,3.529 -1.315,0 0,1.686 1.315,0 0,2.397 2.6,0 0,-2.397 L 0,1.686 0,0 z"
             style="fill:#000000;fill-opacity:1;fill-rule:nonzero;stroke:none"
             id="path98" /></g><g
           id="g100"
           transform="translate(88.874,-14.2451)"><path
             d="m 0,0 c -2.461,0 -4.175,-1.822 -4.175,-4.204 0,-2.388 1.714,-4.192 4.175,-4.192 2.461,0 4.189,1.804 4.189,4.192 C 4.189,-1.822 2.461,0 0,0"
             style="fill:#000000;fill-opacity:1;fill-rule:nonzero;stroke:none"
             id="path102" /></g><g
           id="g104"
           transform="translate(92.8887,-14.4717)"><path
             d="m 0,0 2.526,0 0,-1.393 0.029,0 C 2.937,-0.387 3.821,0.15 4.939,0.15 5.137,0.15 5.351,0.131 5.55,0.092 l 0,-2.371 c -0.336,0.088 -0.641,0.146 -0.994,0.146 -1.284,0 -1.957,-0.884 -1.957,-1.875 l 0,-3.931 L 0,-7.939 0,0 z"
             style="fill:#000000;fill-opacity:1;fill-rule:nonzero;stroke:none"
             id="path106" /></g><g
           id="g108"
           transform="translate(36.2407,-14.4717)"><path
             d="m 0,0 2.524,0 0,-1.393 0.03,0 c 0.381,1.006 1.27,1.543 2.386,1.543 0.198,0 0.414,-0.019 0.609,-0.058 l 0,-2.371 c -0.335,0.088 -0.637,0.146 -0.994,0.146 -1.281,0 -1.956,-0.884 -1.956,-1.875 l 0,-3.931 L 0,-7.939 0,0 z"
             style="fill:#000000;fill-opacity:1;fill-rule:nonzero;stroke:none"
             id="path110" /></g><g
           id="g112"
           transform="translate(43.459,-19.0791)"><path
             d="m 0,0 c 0.045,-1.085 0.67,-1.804 1.773,-1.804 0.625,0 1.239,0.293 1.482,0.871 l 2.433,0 c -0.476,-1.834 -2.171,-2.63 -3.945,-2.63 -2.585,0 -4.345,1.563 -4.345,4.221 0,2.43 1.944,4.176 4.285,4.176 C 4.527,4.834 5.947,2.693 5.826,0 L 0,0 z"
             style="fill:#000000;fill-opacity:1;fill-rule:nonzero;stroke:none"
             id="path114" /></g><g
           id="g116"
           transform="translate(51.6563,-19.0791)"><path
             d="m 0,0 c 0.044,-1.085 0.672,-1.804 1.774,-1.804 0.625,0 1.238,0.293 1.482,0.871 l 2.432,0 c -0.474,-1.834 -2.171,-2.63 -3.944,-2.63 -2.584,0 -4.343,1.563 -4.343,4.221 0,2.43 1.939,4.176 4.282,4.176 C 4.526,4.834 5.949,2.693 5.826,0 L 0,0 z"
             style="fill:#000000;fill-opacity:1;fill-rule:nonzero;stroke:none"
             id="path118" /></g><g
           id="g120"
           transform="translate(35.7676,-13.3291)"><path
             d="m 0,0 c 0.23,0 0.459,-0.016 0.703,-0.045 l 0,1.834 c -0.414,0.018 -0.843,0.046 -1.254,0.046 -2.217,0 -3.012,-0.703 -3.012,-2.978 l -1.253,0 0,-1.685 1.253,0 0,-6.254 2.597,0 0,6.254 1.56,0 0,1.685 -1.56,0 0,0.35 C -0.966,-0.074 -0.598,0 0,0"
             style="fill:#000000;fill-opacity:1;fill-rule:nonzero;stroke:none"
             id="path122" /></g><g
           id="g124"
           transform="translate(28.3887,-16.9971)"><path
             d="m 0,0 c 0,-3.237 -2.625,-5.863 -5.863,-5.863 -3.238,0 -5.864,2.626 -5.864,5.863 0,3.237 2.626,5.861 5.864,5.861 C -2.625,5.861 0,3.237 0,0"
             style="fill:#ffffff;fill-opacity:1;fill-rule:nonzero;stroke:none"
             id="path126" /></g><g
           id="g128"
           transform="translate(24.5596,-19.6631)"><path
             d="m 0,0 0.016,-0.01 c 0,0 -0.006,0.004 -0.011,0.008 0,0 -0.003,0 -0.005,0.002 m -2.604,1.378 c -0.285,-0.101 -0.663,0.159 -0.832,0.288 -0.145,0.166 -1.01,1.088 -1.11,1.203 -0.217,0.251 -0.052,0.766 0.483,0.945 0.152,0.052 0.382,0.054 0.524,-0.101 0.631,-0.756 1.289,-1.559 1.337,-1.715 0.081,-0.27 -0.068,-0.504 -0.402,-0.62 m 0.555,7.173 c -0.536,0 -1.054,-0.07 -1.546,-0.198 0.203,-0.018 0.335,-0.146 0.405,-0.4 0,0 1.103,-3.648 1.234,-4.057 C -1.827,3.484 -1.672,3.035 -1.672,3.035 -1.759,2.963 -1.838,2.869 -1.899,2.75 -2.012,2.513 -2.074,2.321 -2.102,2.127 c -0.17,0.295 -0.838,1.115 -1.291,1.661 0,0 -0.03,0.36 -0.127,0.709 -0.097,0.346 -0.72,2.691 -0.72,2.691 -0.11,0.435 -0.064,0.815 0.176,1.019 -2.301,-0.813 -3.947,-2.982 -3.947,-5.533 0,-2.32 1.361,-4.324 3.34,-5.281 -0.203,0.298 -0.437,0.761 -0.547,1.418 -0.182,1.078 -0.218,1.773 -0.355,2.377 -0.182,0.802 -0.127,0.989 0.15,1.342 0.137,0.175 0.292,0.283 0.436,0.329 0.146,0.04 0.295,-0.046 0.35,-0.108 0.347,-0.373 1.013,-1.089 1.095,-1.19 0.161,-0.187 0.182,-0.426 0.063,-0.709 -0.048,-0.116 -0.178,-0.166 -0.278,-0.19 -0.231,-0.053 -0.492,-0.006 -0.581,0.07 -0.187,0.159 -1.098,0.991 -1.098,0.95 0,-0.221 0.677,-0.754 0.998,-1.062 0.132,-0.128 0.455,-0.163 0.716,-0.102 0.193,0.045 0.325,0.14 0.382,0.277 0.09,0.212 0.111,0.41 0.062,0.585 0.211,-0.124 0.485,-0.228 0.725,-0.144 0.234,0.08 0.376,0.207 0.451,0.343 0.017,-0.155 0.042,-0.33 0.075,-0.539 0.081,-0.524 0.178,-0.819 0.238,-0.993 0.021,-0.065 0.043,-0.135 0.041,-0.154 -0.002,-0.004 -0.003,-0.006 -0.008,-0.012 -0.14,-0.193 -0.343,-0.511 -0.473,-0.902 -0.086,-0.26 -0.151,-0.618 -0.16,-0.95 -0.004,-0.118 0,-0.299 0.035,-0.299 0.035,0 0.029,0.184 0.043,0.299 0.037,0.336 0.091,0.677 0.189,0.924 0.129,0.317 0.301,0.578 0.489,0.842 0.007,0.008 0.011,0.016 0.015,0.019 0.044,0.064 0.02,0.135 -0.028,0.279 -0.058,0.171 -0.151,0.456 -0.233,0.97 -0.116,0.759 -0.161,1.044 0.118,1.623 0.224,0.466 0.821,0.471 0.949,0.418 0.049,-0.026 0.054,-0.311 0.059,-0.565 0.006,-0.285 0.013,-0.638 0.059,-1.066 0.059,-0.54 0.28,-0.963 0.479,-1.207 0.161,-0.194 0.292,-0.283 0.323,-0.252 0.029,0.028 -0.111,0.134 -0.254,0.36 -0.16,0.246 -0.343,0.62 -0.397,1.116 -0.047,0.42 -0.053,0.77 -0.059,1.051 -0.008,0.428 -0.013,0.643 -0.151,0.701 -0.069,0.029 -0.216,0.047 -0.382,0.024 l 1.1,3.685 c 0.191,0.663 0.394,0.935 0.818,0.893 0.004,0 0.008,-0.004 0.015,-0.006 -0.847,0.455 -1.816,0.713 -2.847,0.713"
             style="fill:#000000;fill-opacity:1;fill-rule:nonzero;stroke:none"
             id="path130" /></g><g
           id="g132"
           transform="translate(25.6763,-12.0107)"><path
             d="m 0,0 c 0.141,-0.147 0.2,-0.353 0.139,-0.57 l -0.988,-4.393 c -0.06,-0.34 -0.16,-1.047 -0.07,-1.529 0.122,-0.658 0.381,-1.544 0.191,-2.525 -0.102,-0.52 -0.258,-1.087 -0.521,-1.528 2.349,0.789 4.041,2.982 4.041,5.566 C 2.792,-2.882 1.677,-1.04 0,0"
             style="fill:#000000;fill-opacity:1;fill-rule:nonzero;stroke:none"
             id="path134" /></g><g
           id="g136"
           transform="translate(138.2051,-16.8359)"><path
             d="m 0,0 c -0.042,0.265 -0.18,0.423 -0.36,0.519 -0.18,0.095 -0.402,0.138 -0.645,0.138 -0.55,0 -0.794,-0.159 -0.794,-0.434 0,-1.144 4.382,-0.435 4.382,-3.208 0,-1.768 -1.472,-2.623 -3.567,-2.623 -2.012,0 -3.324,1.173 -3.376,2.548 l 2.391,0 c 0.053,-0.273 0.201,-0.476 0.414,-0.603 0.2,-0.126 0.465,-0.19 0.708,-0.19 0.625,0 1.037,0.202 1.037,0.561 0,1.153 -4.381,0.36 -4.381,3.271 0,1.62 1.397,2.434 3.302,2.434 2.117,0 3.08,-1.08 3.26,-2.413 L 0,0 z"
             style="fill:#000000;fill-opacity:1;fill-rule:nonzero;stroke:none"
             id="path138" /></g><g
           id="g140"
           transform="translate(145.6709,-18.8467)"><path
             d="M 0,0 C 0,0.508 -0.455,0.963 -0.974,0.963 -1.63,0.963 -2,0.592 -2,0 l 2,0 z m -2,-1.123 c 0,-0.655 0.507,-1.09 1.09,-1.09 0.349,0 0.667,0.159 0.826,0.486 l 2.105,0 c -0.38,-1.375 -1.777,-1.831 -3.069,-1.831 -1.777,0 -3.154,1.017 -3.154,2.88 0,1.821 1.366,2.987 3.144,2.987 2.053,0 3.291,-1.42 3.26,-3.432 l -4.202,0 z"
             style="fill:#000000;fill-opacity:1;fill-rule:nonzero;stroke:none"
             id="path142" /></g><g
           id="g144"
           transform="translate(152.7349,-18.8467)"><path
             d="M 0,0 C 0,0.508 -0.455,0.963 -0.974,0.963 -1.63,0.963 -2.001,0.592 -2.001,0 L 0,0 z m -2.001,-1.123 c 0,-0.655 0.508,-1.09 1.09,-1.09 0.35,0 0.667,0.159 0.826,0.486 l 2.106,0 c -0.38,-1.375 -1.777,-1.831 -3.069,-1.831 -1.778,0 -3.155,1.017 -3.155,2.88 0,1.821 1.367,2.987 3.144,2.987 2.054,0 3.291,-1.42 3.261,-3.432 l -4.203,0 z"
             style="fill:#000000;fill-opacity:1;fill-rule:nonzero;stroke:none"
             id="path146" /></g><g
           id="g148"
           transform="translate(161.9795,-20.4678)"><path
             d="m 0,0 0.529,0 c 1.165,0 1.8,0.615 1.8,2.055 0,1.588 -0.519,2.009 -1.853,2.009 L 0,4.064 0,0 z m -2.497,-1.775 0,7.619 3.344,0 c 2.456,0 3.979,-1.143 3.979,-3.651 0,-2.869 -1.597,-3.968 -4.042,-3.968 l -3.281,0 z"
             style="fill:#000000;fill-opacity:1;fill-rule:nonzero;stroke:none"
             id="path150" /></g><path
           d="m 167.688,-16.7 2.202,0 0,-5.543 -2.202,0 0,5.543 z m 0,2.277 2.202,0 0,-1.566 -2.202,0 0,1.566 z"
           style="fill:#000000;fill-opacity:1;fill-rule:nonzero;stroke:none"
           id="path152" /><g
           id="g154"
           transform="translate(173.1206,-19.376)"><path
             d="M 0,0 C 0,-0.549 0.275,-1.059 0.868,-1.079 1.545,-1.102 1.8,-0.529 1.8,0.063 1.8,0.678 1.566,1.248 0.868,1.26 0.201,1.26 0,0.719 0,0 m 0.297,-3.154 c 0,-0.063 0.042,-0.159 0.137,-0.243 0.095,-0.085 0.254,-0.138 0.477,-0.138 0.634,0 0.889,0.286 0.889,1.079 L 1.8,-2 C 1.481,-2.318 1.005,-2.604 0.212,-2.604 c -1.535,0 -2.414,1.207 -2.414,2.624 0,1.367 0.657,2.818 2.477,2.818 0.667,0 1.291,-0.352 1.683,-0.891 l 0,0.729 1.937,0 0,-4.465 c 0,-1.66 -0.191,-2.963 -2.921,-2.963 -1.958,0 -2.784,0.783 -2.89,1.598 l 2.213,0 z"
             style="fill:#000000;fill-opacity:1;fill-rule:nonzero;stroke:none"
             id="path156" /></g><path
           d="m 178.279,-16.7 2.201,0 0,-5.543 -2.201,0 0,5.543 z m 0,2.277 2.201,0 0,-1.566 -2.201,0 0,1.566 z"
           style="fill:#000000;fill-opacity:1;fill-rule:nonzero;stroke:none"
           id="path158" /><g
           id="g160"
           transform="translate(185.3193,-22.2432)"><path
             d="m 0,0 c -2.89,-0.161 -3.239,0.041 -3.239,1.957 l 0,2.318 -0.783,0 0,1.268 0.814,0 0,1.727 2.17,0 0,-1.727 1.059,0 0,-1.268 -1.059,0 0,-2.011 c 0,-0.508 0.074,-0.688 0.688,-0.688 L 0,1.576 0,0 z"
             style="fill:#000000;fill-opacity:1;fill-rule:nonzero;stroke:none"
             id="path162" /></g><g
           id="g164"
           transform="translate(190.0635,-19.7891)"><path
             d="m 0,0 c -0.72,-0.349 -1.672,-0.181 -1.672,-0.899 0,-0.276 0.264,-0.467 0.697,-0.467 0.773,0 1.028,0.603 0.975,1.366 m 0.222,-2.454 -0.105,0.592 c -0.625,-0.582 -1.261,-0.753 -2.086,-0.753 -1.048,0 -1.979,0.52 -1.979,1.674 0,2.518 3.948,1.374 3.948,2.413 0,0.401 -0.488,0.454 -0.72,0.454 -0.307,0 -0.719,-0.064 -0.773,-0.54 l -2.116,0 c 0,1.176 0.835,1.865 3.027,1.865 2.624,0 2.784,-0.975 2.784,-2.299 l 0,-2.592 c 0,-0.318 0.009,-0.477 0.296,-0.709 l 0,-0.105 -2.276,0 z"
             style="fill:#000000;fill-opacity:1;fill-rule:nonzero;stroke:none"
             id="path166" /></g><path
           d="m 193.57,-14.624 2.202,0 0,-7.619 -2.202,0 0,7.619 z"
           style="fill:#000000;fill-opacity:1;fill-rule:nonzero;stroke:none"
           id="path168" /><g
           id="g170"
           transform="translate(204.0625,-16.9209)"><path
             d="m 0,0 -0.772,-2.73 1.577,0 L 0,0 z m -3.979,-5.322 2.73,7.619 2.541,0 2.73,-7.619 -2.487,0 -0.296,1.005 -2.488,0 -0.285,-1.005 -2.445,0 z"
             style="fill:#000000;fill-opacity:1;fill-rule:nonzero;stroke:none"
             id="path172" /></g><g
           id="g174"
           transform="translate(208.7559,-16.7002)"><path
             d="m 0,0 2,0 0,-1.12 0.022,0 c 0.307,0.868 0.847,1.282 1.704,1.282 0.095,0 0.19,-0.023 0.285,-0.033 l 0,-2.201 c -0.147,0.02 -0.307,0.063 -0.455,0.063 -0.899,0 -1.355,-0.423 -1.355,-1.62 l 0,-1.914 L 0,-5.543 0,0 z"
             style="fill:#000000;fill-opacity:1;fill-rule:nonzero;stroke:none"
             id="path176" /></g><g
           id="g178"
           transform="translate(217.0776,-22.2432)"><path
             d="m 0,0 c -2.889,-0.161 -3.238,0.041 -3.238,1.957 l 0,2.318 -0.784,0 0,1.268 0.815,0 0,1.727 2.17,0 0,-1.727 1.058,0 0,-1.268 -1.058,0 0,-2.011 c 0,-0.508 0.074,-0.688 0.688,-0.688 L 0,1.576 0,0 z"
             style="fill:#000000;fill-opacity:1;fill-rule:nonzero;stroke:none"
             id="path180" /></g><g
           id="g182"
           transform="translate(221.9399,-22.2432)"><path
             d="m 0,0 0,7.619 2.498,0 0,-5.844 3.429,0 L 5.927,0 0,0 z"
             style="fill:#000000;fill-opacity:1;fill-rule:nonzero;stroke:none"
             id="path184" /></g><path
           d="m 228.855,-16.7 2.202,0 0,-5.543 -2.202,0 0,5.543 z m 0,2.277 2.202,0 0,-1.566 -2.202,0 0,1.566 z"
           style="fill:#000000;fill-opacity:1;fill-rule:nonzero;stroke:none"
           id="path186" /><g
           id="g188"
           transform="translate(236.0327,-18.8154)"><path
             d="m 0,0 c -0.011,0.244 -0.095,0.434 -0.232,0.572 -0.139,0.147 -0.329,0.222 -0.572,0.222 -0.826,0 -0.964,-0.857 -0.964,-1.513 0,-0.838 0.318,-1.387 0.964,-1.387 0.572,0 0.793,0.392 0.857,0.827 l 2.223,0 c -0.191,-1.684 -1.545,-2.31 -3.08,-2.31 -1.789,0 -3.165,1.007 -3.165,2.88 0,1.895 1.333,2.986 3.165,2.986 C 0.677,2.277 2.075,1.642 2.234,0 L 0,0 z"
             style="fill:#000000;fill-opacity:1;fill-rule:nonzero;stroke:none"
             id="path190" /></g><g
           id="g192"
           transform="translate(243.3184,-18.8467)"><path
             d="M 0,0 C 0,0.508 -0.455,0.963 -0.974,0.963 -1.629,0.963 -2,0.592 -2,0 l 2,0 z m -2,-1.123 c 0,-0.655 0.507,-1.09 1.09,-1.09 0.349,0 0.666,0.159 0.825,0.486 l 2.106,0 c -0.38,-1.375 -1.777,-1.831 -3.069,-1.831 -1.778,0 -3.154,1.017 -3.154,2.88 0,1.821 1.366,2.987 3.144,2.987 2.053,0 3.291,-1.42 3.26,-3.432 l -4.202,0 z"
             style="fill:#000000;fill-opacity:1;fill-rule:nonzero;stroke:none"
             id="path194" /></g><g
           id="g196"
           transform="translate(246.3594,-16.7002)"><path
             d="m 0,0 2.011,0 0,-0.867 c 0.498,0.668 1.038,1.029 1.874,1.029 1.46,0 2.149,-0.859 2.149,-2.383 l 0,-3.322 -2.202,0 0,2.93 c 0,0.55 -0.148,1.039 -0.772,1.039 -0.678,0 -0.858,-0.435 -0.858,-1.145 l 0,-2.824 L 0,-5.543 0,0 z"
             style="fill:#000000;fill-opacity:1;fill-rule:nonzero;stroke:none"
             id="path198" /></g><g
           id="g200"
           transform="translate(255.3604,-20.5186)"><path
             d="m 0,0 c 0,-0.223 0.084,-0.393 0.232,-0.509 0.138,-0.104 0.329,-0.17 0.541,-0.17 0.338,0 0.698,0.108 0.698,0.498 0,0.889 -3.397,0.181 -3.397,2.329 0,1.418 1.471,1.832 2.625,1.832 1.206,0 2.625,-0.277 2.751,-1.747 l -2,0 C 1.429,2.412 1.354,2.539 1.238,2.635 1.122,2.73 0.963,2.772 0.793,2.772 c -0.38,0 -0.624,-0.117 -0.624,-0.39 0,-0.773 3.504,-0.255 3.504,-2.331 0,-1.153 -0.953,-1.937 -2.985,-1.937 -1.27,0 -2.667,0.393 -2.784,1.886 L 0,0 z"
             style="fill:#000000;fill-opacity:1;fill-rule:nonzero;stroke:none"
             id="path202" /></g><g
           id="g204"
           transform="translate(263.916,-18.8467)"><path
             d="M 0,0 C 0,0.508 -0.456,0.963 -0.974,0.963 -1.63,0.963 -2.001,0.592 -2.001,0 L 0,0 z m -2.001,-1.123 c 0,-0.655 0.508,-1.09 1.09,-1.09 0.349,0 0.667,0.159 0.826,0.486 l 2.106,0 C 1.64,-3.102 0.243,-3.558 -1.048,-3.558 c -1.778,0 -3.155,1.017 -3.155,2.88 0,1.821 1.366,2.987 3.144,2.987 2.054,0 3.291,-1.42 3.26,-3.432 l -4.202,0 z"
             style="fill:#000000;fill-opacity:1;fill-rule:nonzero;stroke:none"
             id="path206" /></g><g
           id="g208"
           transform="translate(273.9229,-16.7002)"><path
             d="m 0,0 0,-1.268 -0.921,0 0,-4.275 -2.201,0 0,4.275 -0.731,0 0,1.268 0.742,0 c 0,1.959 0.762,2.277 2.17,2.277 L 0,2.277 0,0.891 c -0.719,0 -0.974,0 -0.921,-0.891 L 0,0 z"
             style="fill:#000000;fill-opacity:1;fill-rule:nonzero;stroke:none"
             id="path210" /></g><g
           id="g212"
           transform="translate(276.6665,-19.4189)"><path
             d="m 0,0 c 0,-1.049 0.391,-1.503 0.953,-1.503 0.592,0 0.952,0.454 0.952,1.503 0,0.815 -0.36,1.407 -0.931,1.397 C 0.222,1.378 0,0.625 0,0 M 0.942,2.881 C 2.9,2.881 4.107,1.727 4.107,0 c 0,-2.033 -1.377,-2.985 -3.154,-2.985 -1.779,0 -3.154,0.975 -3.154,2.87 0,1.924 1.27,2.996 3.143,2.996"
             style="fill:#000000;fill-opacity:1;fill-rule:nonzero;stroke:none"
             id="path214" /></g><g
           id="g216"
           transform="translate(281.708,-16.7002)"><path
             d="m 0,0 2,0 0,-1.12 0.022,0 c 0.307,0.868 0.847,1.282 1.704,1.282 0.095,0 0.191,-0.023 0.285,-0.033 l 0,-2.201 c -0.147,0.02 -0.306,0.063 -0.455,0.063 -0.899,0 -1.354,-0.423 -1.354,-1.62 l 0,-1.914 L 0,-5.543 0,0 z"
             style="fill:#000000;fill-opacity:1;fill-rule:nonzero;stroke:none"
             id="path218" /></g><g
           id="g220"
           transform="translate(293.5566,-22.2432)"><path
             d="m 0,0 c -2.89,-0.161 -3.239,0.041 -3.239,1.957 l 0,2.318 -0.783,0 0,1.268 0.815,0 0,1.727 2.17,0 0,-1.727 1.058,0 0,-1.268 -1.058,0 0,-2.011 c 0,-0.508 0.074,-0.688 0.687,-0.688 L 0,1.576 0,0 z"
             style="fill:#000000;fill-opacity:1;fill-rule:nonzero;stroke:none"
             id="path222" /></g><g
           id="g224"
           transform="translate(298.6167,-18.8467)"><path
             d="M 0,0 C 0,0.508 -0.455,0.963 -0.973,0.963 -1.63,0.963 -2,0.592 -2,0 l 2,0 z m -2,-1.123 c 0,-0.655 0.508,-1.09 1.09,-1.09 0.349,0 0.668,0.159 0.826,0.486 l 2.106,0 c -0.38,-1.375 -1.778,-1.831 -3.068,-1.831 -1.779,0 -3.155,1.017 -3.155,2.88 0,1.821 1.365,2.987 3.143,2.987 2.054,0 3.292,-1.42 3.26,-3.432 l -4.202,0 z"
             style="fill:#000000;fill-opacity:1;fill-rule:nonzero;stroke:none"
             id="path226" /></g><g
           id="g228"
           transform="translate(301.7017,-16.7002)"><path
             d="m 0,0 2,0 0,-1.12 0.021,0 c 0.307,0.868 0.847,1.282 1.704,1.282 0.095,0 0.191,-0.023 0.286,-0.033 l 0,-2.201 c -0.148,0.02 -0.307,0.063 -0.455,0.063 -0.9,0 -1.355,-0.423 -1.355,-1.62 l 0,-1.914 L 0,-5.543 0,0 z"
             style="fill:#000000;fill-opacity:1;fill-rule:nonzero;stroke:none"
             id="path230" /></g><g
           id="g232"
           transform="translate(306.3291,-16.7002)"><path
             d="m 0,0 2.021,0 0,-0.824 c 0.276,0.424 0.964,0.986 1.757,0.986 0.996,0 1.546,-0.426 1.811,-1.017 0.475,0.666 1.1,1.017 1.915,1.017 1.62,0 2.128,-0.912 2.128,-2.426 l 0,-3.279 -2.202,0 0,2.824 c 0,0.816 -0.159,1.145 -0.741,1.145 -0.646,0 -0.772,-0.563 -0.772,-1.231 l 0,-2.738 -2.202,0 0,2.824 c 0,0.816 -0.159,1.145 -0.74,1.145 -0.646,0 -0.773,-0.563 -0.773,-1.231 l 0,-2.738 L 0,-5.543 0,0 z"
             style="fill:#000000;fill-opacity:1;fill-rule:nonzero;stroke:none"
             id="path234" /></g><g
           id="g236"
           transform="translate(318.8877,-20.5186)"><path
             d="m 0,0 c 0,-0.223 0.084,-0.393 0.232,-0.509 0.139,-0.104 0.329,-0.17 0.541,-0.17 0.337,0 0.699,0.108 0.699,0.498 0,0.889 -3.398,0.181 -3.398,2.329 0,1.418 1.471,1.832 2.625,1.832 1.206,0 2.624,-0.277 2.752,-1.747 l -2,0 C 1.429,2.412 1.354,2.539 1.239,2.635 1.122,2.73 0.964,2.772 0.793,2.772 c -0.38,0 -0.624,-0.117 -0.624,-0.39 0,-0.773 3.504,-0.255 3.504,-2.331 0,-1.153 -0.954,-1.937 -2.985,-1.937 -1.27,0 -2.667,0.393 -2.784,1.886 L 0,0 z"
             style="fill:#000000;fill-opacity:1;fill-rule:nonzero;stroke:none"
             id="path238" /></g><g
           id="g240"
           transform="translate(329.0117,-19.4189)"><path
             d="m 0,0 c 0,-1.049 0.391,-1.503 0.953,-1.503 0.592,0 0.952,0.454 0.952,1.503 0,0.815 -0.36,1.407 -0.931,1.397 C 0.223,1.378 0,0.625 0,0 M 0.942,2.881 C 2.9,2.881 4.106,1.727 4.106,0 c 0,-2.033 -1.376,-2.985 -3.153,-2.985 -1.779,0 -3.155,0.975 -3.155,2.87 0,1.924 1.27,2.996 3.144,2.996"
             style="fill:#000000;fill-opacity:1;fill-rule:nonzero;stroke:none"
             id="path242" /></g><g
           id="g244"
           transform="translate(337.4512,-16.7002)"><path
             d="m 0,0 0,-1.268 -0.922,0 0,-4.275 -2.2,0 0,4.275 -0.73,0 0,1.268 0.739,0 c 0,1.959 0.763,2.277 2.17,2.277 L 0,2.277 0,0.891 c -0.721,0 -0.975,0 -0.922,-0.891 L 0,0 z"
             style="fill:#000000;fill-opacity:1;fill-rule:nonzero;stroke:none"
             id="path246" /></g><g
           id="g248"
           transform="translate(347.6895,-22.2432)"><path
             d="m 0,0 -2.042,0 0,0.814 c -0.55,-0.761 -1.091,-0.975 -2.001,-0.975 -1.207,0 -1.989,0.741 -1.989,2.331 l 0,3.373 2.2,0 0,-2.994 c 0,-0.761 0.266,-1.005 0.795,-1.005 0.635,0 0.836,0.476 0.836,1.333 l 0,2.666 L 0,5.543 0,0 z"
             style="fill:#000000;fill-opacity:1;fill-rule:nonzero;stroke:none"
             id="path250" /></g><g
           id="g252"
           transform="translate(350.6572,-20.5186)"><path
             d="m 0,0 c 0,-0.223 0.085,-0.393 0.233,-0.509 0.137,-0.104 0.329,-0.17 0.539,-0.17 0.338,0 0.7,0.108 0.7,0.498 0,0.889 -3.399,0.181 -3.399,2.329 0,1.418 1.473,1.832 2.627,1.832 1.205,0 2.623,-0.277 2.75,-1.747 l -2,0 C 1.429,2.412 1.354,2.539 1.238,2.635 1.122,2.73 0.963,2.772 0.794,2.772 c -0.381,0 -0.625,-0.117 -0.625,-0.39 0,-0.773 3.504,-0.255 3.504,-2.331 0,-1.153 -0.953,-1.937 -2.985,-1.937 -1.271,0 -2.667,0.393 -2.784,1.886 L 0,0 z"
             style="fill:#000000;fill-opacity:1;fill-rule:nonzero;stroke:none"
             id="path254" /></g><g
           id="g256"
           transform="translate(359.2119,-18.8467)"><path
             d="M 0,0 C 0,0.508 -0.454,0.963 -0.974,0.963 -1.631,0.963 -2.001,0.592 -2.001,0 L 0,0 z m -2.001,-1.123 c 0,-0.655 0.508,-1.09 1.091,-1.09 0.348,0 0.667,0.159 0.825,0.486 l 2.106,0 c -0.379,-1.375 -1.777,-1.831 -3.067,-1.831 -1.78,0 -3.156,1.017 -3.156,2.88 0,1.821 1.366,2.987 3.143,2.987 2.054,0 3.292,-1.42 3.261,-3.432 l -4.203,0 z"
             style="fill:#000000;fill-opacity:1;fill-rule:nonzero;stroke:none"
             id="path258" /></g><path
           d="m 362.38,-20.063 2.244,0 0,-2.18 -2.244,0 0,2.18 z"
           style="fill:#000000;fill-opacity:1;fill-rule:nonzero;stroke:none"
           id="path260" /><g
           id="g262"
           transform="translate(371.9844,-20.4678)"><path
             d="m 0,0 0.529,0 c 1.164,0 1.799,0.615 1.799,2.055 0,1.588 -0.518,2.009 -1.853,2.009 L 0,4.064 0,0 z m -2.499,-1.775 0,7.619 3.346,0 c 2.456,0 3.979,-1.143 3.979,-3.651 0,-2.869 -1.599,-3.968 -4.043,-3.968 l -3.282,0 z"
             style="fill:#000000;fill-opacity:1;fill-rule:nonzero;stroke:none"
             id="path264" /></g><g
           id="g266"
           transform="translate(379.6094,-19.4189)"><path
             d="m 0,0 c 0,-1.049 0.393,-1.503 0.953,-1.503 0.592,0 0.951,0.454 0.951,1.503 0,0.815 -0.359,1.407 -0.931,1.397 C 0.221,1.378 0,0.625 0,0 m 0.941,2.881 c 1.957,0 3.164,-1.154 3.164,-2.881 0,-2.033 -1.375,-2.985 -3.152,-2.985 -1.778,0 -3.154,0.975 -3.154,2.87 0,1.924 1.269,2.996 3.142,2.996"
             style="fill:#000000;fill-opacity:1;fill-rule:nonzero;stroke:none"
             id="path268" /></g><g
           id="g270"
           transform="translate(390.9063,-20.1279)"><path
             d="m 0,0 0.021,0 0.856,3.428 2.087,0 -1.767,-5.543 -2.149,0 -0.857,3.248 -0.021,0 -0.773,-3.248 -2.149,0 -1.832,5.543 2.149,0 0.846,-3.428 0.022,0 0.858,3.428 1.861,0 L 0,0 z"
             style="fill:#000000;fill-opacity:1;fill-rule:nonzero;stroke:none"
             id="path272" /></g><g
           id="g274"
           transform="translate(394.6055,-16.7002)"><path
             d="m 0,0 2.012,0 0,-0.867 c 0.497,0.668 1.036,1.029 1.873,1.029 1.461,0 2.148,-0.859 2.148,-2.383 l 0,-3.322 -2.202,0 0,2.93 c 0,0.55 -0.148,1.039 -0.772,1.039 -0.678,0 -0.858,-0.435 -0.858,-1.145 l 0,-2.824 L 0,-5.543 0,0 z"
             style="fill:#000000;fill-opacity:1;fill-rule:nonzero;stroke:none"
             id="path276" /></g><path
           d="m 401.816,-14.624 2.202,0 0,-7.619 -2.202,0 0,7.619 z"
           style="fill:#000000;fill-opacity:1;fill-rule:nonzero;stroke:none"
           id="path278" /><g
           id="g280"
           transform="translate(407.2578,-19.4189)"><path
             d="m 0,0 c 0,-1.049 0.393,-1.503 0.954,-1.503 0.592,0 0.952,0.454 0.952,1.503 0,0.815 -0.36,1.407 -0.931,1.397 C 0.225,1.378 0,0.625 0,0 M 0.943,2.881 C 2.9,2.881 4.107,1.727 4.107,0 c 0,-2.033 -1.375,-2.985 -3.153,-2.985 -1.778,0 -3.154,0.975 -3.154,2.87 0,1.924 1.27,2.996 3.143,2.996"
             style="fill:#000000;fill-opacity:1;fill-rule:nonzero;stroke:none"
             id="path282" /></g><g
           id="g284"
           transform="translate(415.9629,-19.7891)"><path
             d="m 0,0 c -0.72,-0.349 -1.672,-0.181 -1.672,-0.899 0,-0.276 0.265,-0.467 0.698,-0.467 0.773,0 1.027,0.603 0.974,1.366 m 0.223,-2.454 -0.107,0.592 c -0.624,-0.582 -1.259,-0.753 -2.083,-0.753 -1.049,0 -1.981,0.52 -1.981,1.674 0,2.518 3.948,1.374 3.948,2.413 0,0.401 -0.488,0.454 -0.72,0.454 -0.305,0 -0.718,-0.064 -0.773,-0.54 l -2.115,0 c 0,1.176 0.836,1.865 3.025,1.865 2.626,0 2.784,-0.975 2.784,-2.299 l 0,-2.592 c 0,-0.318 0.011,-0.477 0.297,-0.709 l 0,-0.105 -2.275,0 z"
             style="fill:#000000;fill-opacity:1;fill-rule:nonzero;stroke:none"
             id="path286" /></g><g
           id="g288"
           transform="translate(423.2383,-19.5244)"><path
             d="m 0,0 c 0,0.615 -0.211,1.281 -0.941,1.281 -0.731,0 -0.933,-0.699 -0.933,-1.314 0,-0.58 0.148,-1.258 0.868,-1.258 C -0.244,-1.291 0,-0.645 0,0 m 0.148,-2.719 0,0.74 c -0.519,-0.677 -0.996,-0.901 -1.705,-0.901 -1.672,0 -2.518,1.261 -2.518,2.827 0,1.842 1.026,3.039 2.349,3.039 0.699,0 1.185,-0.171 1.652,-0.722 l 0,2.636 2.201,0 0,-7.619 -1.979,0 z"
             style="fill:#000000;fill-opacity:1;fill-rule:nonzero;stroke:none"
             id="path290" /></g><g
           id="g292"
           transform="translate(429.8809,-16.7002)"><path
             d="m 0,0 2.02,0 0,-0.824 c 0.275,0.424 0.962,0.986 1.757,0.986 0.994,0 1.545,-0.426 1.809,-1.017 0.477,0.666 1.102,1.017 1.917,1.017 1.618,0 2.126,-0.912 2.126,-2.426 l 0,-3.279 -2.201,0 0,2.824 c 0,0.816 -0.158,1.145 -0.74,1.145 -0.647,0 -0.772,-0.563 -0.772,-1.231 l 0,-2.738 -2.203,0 0,2.824 c 0,0.816 -0.158,1.145 -0.74,1.145 -0.646,0 -0.774,-0.563 -0.774,-1.231 l 0,-2.738 L 0,-5.543 0,0 z"
             style="fill:#000000;fill-opacity:1;fill-rule:nonzero;stroke:none"
             id="path294" /></g><g
           id="g296"
           transform="translate(442.5645,-19.4189)"><path
             d="m 0,0 c 0,-1.049 0.393,-1.503 0.953,-1.503 0.592,0 0.951,0.454 0.951,1.503 0,0.815 -0.359,1.407 -0.93,1.397 C 0.223,1.378 0,0.625 0,0 M 0.942,2.881 C 2.9,2.881 4.107,1.727 4.107,0 c 0,-2.033 -1.375,-2.985 -3.154,-2.985 -1.778,0 -3.154,0.975 -3.154,2.87 0,1.924 1.27,2.996 3.143,2.996"
             style="fill:#000000;fill-opacity:1;fill-rule:nonzero;stroke:none"
             id="path298" /></g><g
           id="g300"
           transform="translate(447.6074,-16.7002)"><path
             d="m 0,0 2,0 0,-1.12 0.02,0 c 0.306,0.868 0.847,1.282 1.705,1.282 0.095,0 0.191,-0.023 0.285,-0.033 l 0,-2.201 c -0.149,0.02 -0.307,0.063 -0.455,0.063 -0.899,0 -1.354,-0.423 -1.354,-1.62 l 0,-1.914 L 0,-5.543 0,0 z"
             style="fill:#000000;fill-opacity:1;fill-rule:nonzero;stroke:none"
             id="path302" /></g><g
           id="g304"
           transform="translate(456.2871,-18.8467)"><path
             d="M 0,0 C 0,0.508 -0.455,0.963 -0.973,0.963 -1.628,0.963 -2,0.592 -2,0 l 2,0 z m -2,-1.123 c 0,-0.655 0.508,-1.09 1.09,-1.09 0.349,0 0.667,0.159 0.826,0.486 l 2.106,0 c -0.381,-1.375 -1.778,-1.831 -3.069,-1.831 -1.777,0 -3.154,1.017 -3.154,2.88 0,1.821 1.366,2.987 3.142,2.987 2.055,0 3.293,-1.42 3.262,-3.432 l -4.203,0 z"
             style="fill:#000000;fill-opacity:1;fill-rule:nonzero;stroke:none"
             id="path306" /></g><g
           id="g308"
           transform="translate(462.4531,-16.7002)"><path
             d="M 0,0 2.202,0 3.176,-3.502 4.139,0 6.256,0 4.383,-5.543 1.928,-5.543 0,0 z"
             style="fill:#000000;fill-opacity:1;fill-rule:nonzero;stroke:none"
             id="path310" /></g><g
           id="g312"
           transform="translate(473.3477,-18.8467)"><path
             d="M 0,0 C 0,0.508 -0.454,0.963 -0.974,0.963 -1.629,0.963 -2,0.592 -2,0 l 2,0 z m -2,-1.123 c 0,-0.655 0.509,-1.09 1.09,-1.09 0.35,0 0.666,0.159 0.826,0.486 l 2.105,0 c -0.379,-1.375 -1.777,-1.831 -3.068,-1.831 -1.778,0 -3.153,1.017 -3.153,2.88 0,1.821 1.364,2.987 3.143,2.987 2.053,0 3.291,-1.42 3.259,-3.432 l -4.202,0 z"
             style="fill:#000000;fill-opacity:1;fill-rule:nonzero;stroke:none"
             id="path314" /></g><g
           id="g316"
           transform="translate(480.1895,-18.8154)"><path
             d="m 0,0 c -0.012,0.244 -0.095,0.434 -0.232,0.572 -0.137,0.147 -0.329,0.222 -0.573,0.222 -0.824,0 -0.963,-0.857 -0.963,-1.513 0,-0.838 0.319,-1.387 0.963,-1.387 0.573,0 0.793,0.392 0.858,0.827 l 2.222,0 c -0.191,-1.684 -1.545,-2.31 -3.08,-2.31 -1.787,0 -3.165,1.007 -3.165,2.88 0,1.895 1.335,2.986 3.165,2.986 1.483,0 2.88,-0.635 3.037,-2.277 L 0,0 z"
             style="fill:#000000;fill-opacity:1;fill-rule:nonzero;stroke:none"
             id="path318" /></g><g
           id="g320"
           transform="translate(487.1152,-22.2432)"><path
             d="m 0,0 c -2.889,-0.161 -3.238,0.041 -3.238,1.957 l 0,2.318 -0.783,0 0,1.268 0.814,0 0,1.727 2.17,0 0,-1.727 1.058,0 0,-1.268 -1.058,0 0,-2.011 c 0,-0.508 0.074,-0.688 0.687,-0.688 L 0,1.576 0,0 z"
             style="fill:#000000;fill-opacity:1;fill-rule:nonzero;stroke:none"
             id="path322" /></g><g
           id="g324"
           transform="translate(490.2188,-19.4189)"><path
             d="m 0,0 c 0,-1.049 0.393,-1.503 0.954,-1.503 0.592,0 0.95,0.454 0.95,1.503 0,0.815 -0.358,1.407 -0.93,1.397 C 0.223,1.378 0,0.625 0,0 M 0.941,2.881 C 2.9,2.881 4.107,1.727 4.107,0 c 0,-2.033 -1.377,-2.985 -3.153,-2.985 -1.779,0 -3.154,0.975 -3.154,2.87 0,1.924 1.268,2.996 3.141,2.996"
             style="fill:#000000;fill-opacity:1;fill-rule:nonzero;stroke:none"
             id="path326" /></g><g
           id="g328"
           transform="translate(495.2617,-16.7002)"><path
             d="m 0,0 2,0 0,-1.12 0.02,0 c 0.306,0.868 0.848,1.282 1.705,1.282 0.095,0 0.191,-0.023 0.285,-0.033 l 0,-2.201 c -0.147,0.02 -0.307,0.063 -0.454,0.063 -0.9,0 -1.356,-0.423 -1.356,-1.62 l 0,-1.914 -2.2,0 L 0,0 z"
             style="fill:#000000;fill-opacity:1;fill-rule:nonzero;stroke:none"
             id="path330" /></g><g
           id="g332"
           transform="translate(501.8564,-20.5186)"><path
             d="m 0,0 c 0,-0.223 0.085,-0.393 0.233,-0.509 0.137,-0.104 0.328,-0.17 0.539,-0.17 0.339,0 0.7,0.108 0.7,0.498 0,0.889 -3.398,0.181 -3.398,2.329 0,1.418 1.47,1.832 2.624,1.832 1.207,0 2.625,-0.277 2.752,-1.747 l -2,0 C 1.429,2.412 1.354,2.539 1.239,2.635 1.122,2.73 0.964,2.772 0.794,2.772 c -0.381,0 -0.625,-0.117 -0.625,-0.39 0,-0.773 3.505,-0.255 3.505,-2.331 0,-1.153 -0.954,-1.937 -2.986,-1.937 -1.269,0 -2.667,0.393 -2.785,1.886 L 0,0 z"
             style="fill:#000000;fill-opacity:1;fill-rule:nonzero;stroke:none"
             id="path334" /></g><g
           id="g336"
           transform="translate(513.3574,-16.7002)"><path
             d="m 0,0 0,-1.268 -0.922,0 0,-4.275 -2.201,0 0,4.275 -0.731,0 0,1.268 0.742,0 c 0,1.959 0.76,2.277 2.169,2.277 L 0,2.277 0,0.891 c -0.72,0 -0.975,0 -0.922,-0.891 L 0,0 z"
             style="fill:#000000;fill-opacity:1;fill-rule:nonzero;stroke:none"
             id="path338" /></g><g
           id="g340"
           transform="translate(514.0781,-16.7002)"><path
             d="m 0,0 2,0 0,-1.12 0.021,0 c 0.308,0.868 0.848,1.282 1.706,1.282 0.095,0 0.191,-0.023 0.285,-0.033 l 0,-2.201 c -0.149,0.02 -0.307,0.063 -0.456,0.063 -0.9,0 -1.355,-0.423 -1.355,-1.62 l 0,-1.914 L 0,-5.543 0,0 z"
             style="fill:#000000;fill-opacity:1;fill-rule:nonzero;stroke:none"
             id="path342" /></g><g
           id="g344"
           transform="translate(520.8008,-19.4189)"><path
             d="m 0,0 c 0,-1.049 0.392,-1.503 0.953,-1.503 0.592,0 0.953,0.454 0.953,1.503 0,0.815 -0.361,1.407 -0.933,1.397 C 0.223,1.378 0,0.625 0,0 m 0.941,2.881 c 1.958,0 3.166,-1.154 3.166,-2.881 0,-2.033 -1.377,-2.985 -3.154,-2.985 -1.779,0 -3.154,0.975 -3.154,2.87 0,1.924 1.271,2.996 3.142,2.996"
             style="fill:#000000;fill-opacity:1;fill-rule:nonzero;stroke:none"
             id="path346" /></g><g
           id="g348"
           transform="translate(525.7695,-16.7002)"><path
             d="m 0,0 2.021,0 0,-0.824 c 0.276,0.424 0.963,0.986 1.756,0.986 0.996,0 1.545,-0.426 1.811,-1.017 0.476,0.666 1.1,1.017 1.916,1.017 1.619,0 2.127,-0.912 2.127,-2.426 l 0,-3.279 -2.201,0 0,2.824 c 0,0.816 -0.159,1.145 -0.742,1.145 -0.645,0 -0.772,-0.563 -0.772,-1.231 l 0,-2.738 -2.202,0 0,2.824 c 0,0.816 -0.157,1.145 -0.741,1.145 -0.645,0 -0.772,-0.563 -0.772,-1.231 l 0,-2.738 L 0,-5.543 0,0 z"
             style="fill:#000000;fill-opacity:1;fill-rule:nonzero;stroke:none"
             id="path350" /></g><g
           id="g352"
           transform="translate(540.1924,-22.2432)"><path
             d="m 0,0 0,7.619 5.927,0 0,-1.779 -3.43,0 0,-1.385 2.732,0 0,-1.779 -2.732,0 L 2.497,0 0,0 z"
             style="fill:#000000;fill-opacity:1;fill-rule:nonzero;stroke:none"
             id="path354" /></g><g
           id="g356"
           transform="translate(547.0225,-16.7002)"><path
             d="m 0,0 2,0 0,-1.12 0.022,0 c 0.307,0.868 0.846,1.282 1.705,1.282 0.094,0 0.189,-0.023 0.284,-0.033 l 0,-2.201 c -0.149,0.02 -0.307,0.063 -0.454,0.063 -0.901,0 -1.355,-0.423 -1.355,-1.62 l 0,-1.914 L 0,-5.543 0,0 z"
             style="fill:#000000;fill-opacity:1;fill-rule:nonzero;stroke:none"
             id="path358" /></g><g
           id="g360"
           transform="translate(555.7051,-18.8467)"><path
             d="M 0,0 C 0,0.508 -0.457,0.963 -0.975,0.963 -1.631,0.963 -2.001,0.592 -2.001,0 L 0,0 z m -2.001,-1.123 c 0,-0.655 0.509,-1.09 1.09,-1.09 0.348,0 0.668,0.159 0.825,0.486 l 2.107,0 c -0.38,-1.375 -1.779,-1.831 -3.07,-1.831 -1.779,0 -3.152,1.017 -3.152,2.88 0,1.821 1.364,2.987 3.141,2.987 2.054,0 3.292,-1.42 3.261,-3.432 l -4.202,0 z"
             style="fill:#000000;fill-opacity:1;fill-rule:nonzero;stroke:none"
             id="path362" /></g><g
           id="g364"
           transform="translate(562.7676,-18.8467)"><path
             d="M 0,0 C 0,0.508 -0.455,0.963 -0.974,0.963 -1.631,0.963 -2,0.592 -2,0 l 2,0 z m -2,-1.123 c 0,-0.655 0.508,-1.09 1.09,-1.09 0.347,0 0.668,0.159 0.825,0.486 l 2.106,0 c -0.38,-1.375 -1.777,-1.831 -3.068,-1.831 -1.779,0 -3.154,1.017 -3.154,2.88 0,1.821 1.364,2.987 3.142,2.987 2.055,0 3.292,-1.42 3.26,-3.432 l -4.201,0 z"
             style="fill:#000000;fill-opacity:1;fill-rule:nonzero;stroke:none"
             id="path366" /></g><g
           id="g368"
           transform="translate(565.5332,-14.624)"><path
             d="M 0,0 2.52,0 3.854,-5.07 5.239,0 7.759,0 5.113,-7.619 2.604,-7.619 0,0 z"
             style="fill:#000000;fill-opacity:1;fill-rule:nonzero;stroke:none"
             id="path370" /></g><g
           id="g372"
           transform="translate(578.0703,-18.8467)"><path
             d="M 0,0 C 0,0.508 -0.456,0.963 -0.975,0.963 -1.631,0.963 -2,0.592 -2,0 l 2,0 z m -2,-1.123 c 0,-0.655 0.507,-1.09 1.09,-1.09 0.348,0 0.666,0.159 0.825,0.486 l 2.106,0 c -0.38,-1.375 -1.779,-1.831 -3.07,-1.831 -1.778,0 -3.153,1.017 -3.153,2.88 0,1.821 1.366,2.987 3.143,2.987 2.053,0 3.292,-1.42 3.259,-3.432 l -4.2,0 z"
             style="fill:#000000;fill-opacity:1;fill-rule:nonzero;stroke:none"
             id="path374" /></g><g
           id="g376"
           transform="translate(584.9102,-18.8154)"><path
             d="m 0,0 c -0.01,0.244 -0.095,0.434 -0.232,0.572 -0.137,0.147 -0.328,0.222 -0.571,0.222 -0.826,0 -0.964,-0.857 -0.964,-1.513 0,-0.838 0.319,-1.387 0.964,-1.387 0.571,0 0.793,0.392 0.858,0.827 l 2.22,0 c -0.191,-1.684 -1.545,-2.31 -3.078,-2.31 -1.789,0 -3.166,1.007 -3.166,2.88 0,1.895 1.334,2.986 3.166,2.986 C 0.678,2.277 2.075,1.642 2.234,0 L 0,0 z"
             style="fill:#000000;fill-opacity:1;fill-rule:nonzero;stroke:none"
             id="path378" /></g><g
           id="g380"
           transform="translate(591.8359,-22.2432)"><path
             d="m 0,0 c -2.889,-0.161 -3.238,0.041 -3.238,1.957 l 0,2.318 -0.783,0 0,1.268 0.816,0 0,1.727 2.168,0 0,-1.727 1.058,0 0,-1.268 -1.058,0 0,-2.011 c 0,-0.508 0.074,-0.688 0.689,-0.688 L 0,1.576 0,0 z"
             style="fill:#000000;fill-opacity:1;fill-rule:nonzero;stroke:none"
             id="path382" /></g><g
           id="g384"
           transform="translate(594.9395,-19.4189)"><path
             d="m 0,0 c 0,-1.049 0.393,-1.503 0.954,-1.503 0.592,0 0.952,0.454 0.952,1.503 0,0.815 -0.36,1.407 -0.932,1.397 C 0.225,1.378 0,0.625 0,0 M 0.943,2.881 C 2.9,2.881 4.107,1.727 4.107,0 c 0,-2.033 -1.375,-2.985 -3.153,-2.985 -1.778,0 -3.154,0.975 -3.154,2.87 0,1.924 1.27,2.996 3.143,2.996"
             style="fill:#000000;fill-opacity:1;fill-rule:nonzero;stroke:none"
             id="path386" /></g><g
           id="g388"
           transform="translate(599.9824,-16.7002)"><path
             d="m 0,0 2.001,0 0,-1.12 0.02,0 c 0.307,0.868 0.847,1.282 1.705,1.282 0.094,0 0.19,-0.023 0.284,-0.033 l 0,-2.201 c -0.147,0.02 -0.306,0.063 -0.454,0.063 -0.9,0 -1.355,-0.423 -1.355,-1.62 l 0,-1.914 L 0,-5.543 0,0 z"
             style="fill:#000000;fill-opacity:1;fill-rule:nonzero;stroke:none"
             id="path390" /></g><path
           d="m 604.768,-20.063 2.245,0 0,-2.18 -2.245,0 0,2.18 z"
           style="fill:#000000;fill-opacity:1;fill-rule:nonzero;stroke:none"
           id="path392" /><g
           id="g394"
           transform="translate(611.9668,-18.8154)"><path
             d="m 0,0 c -0.01,0.244 -0.095,0.434 -0.232,0.572 -0.137,0.147 -0.329,0.222 -0.572,0.222 -0.825,0 -0.964,-0.857 -0.964,-1.513 0,-0.838 0.319,-1.387 0.964,-1.387 0.572,0 0.794,0.392 0.858,0.827 l 2.222,0 c -0.19,-1.684 -1.544,-2.31 -3.08,-2.31 -1.788,0 -3.165,1.007 -3.165,2.88 0,1.895 1.333,2.986 3.165,2.986 1.482,0 2.88,-0.635 3.038,-2.277 L 0,0 z"
             style="fill:#000000;fill-opacity:1;fill-rule:nonzero;stroke:none"
             id="path396" /></g><g
           id="g398"
           transform="translate(617.2949,-19.4189)"><path
             d="m 0,0 c 0,-1.049 0.391,-1.503 0.953,-1.503 0.592,0 0.951,0.454 0.951,1.503 0,0.815 -0.359,1.407 -0.93,1.397 C 0.223,1.378 0,0.625 0,0 M 0.942,2.881 C 2.9,2.881 4.107,1.727 4.107,0 c 0,-2.033 -1.377,-2.985 -3.154,-2.985 -1.779,0 -3.154,0.975 -3.154,2.87 0,1.924 1.27,2.996 3.143,2.996"
             style="fill:#000000;fill-opacity:1;fill-rule:nonzero;stroke:none"
             id="path400" /></g><g
           id="g402"
           transform="translate(622.2637,-16.7002)"><path
             d="m 0,0 2.021,0 0,-0.824 c 0.275,0.424 0.962,0.986 1.756,0.986 0.994,0 1.545,-0.426 1.809,-1.017 0.477,0.666 1.102,1.017 1.916,1.017 1.62,0 2.129,-0.912 2.129,-2.426 l 0,-3.279 -2.203,0 0,2.824 c 0,0.816 -0.157,1.145 -0.74,1.145 -0.646,0 -0.773,-0.563 -0.773,-1.231 l 0,-2.738 -2.2,0 0,2.824 c 0,0.816 -0.16,1.145 -0.74,1.145 -0.647,0 -0.774,-0.563 -0.774,-1.231 l 0,-2.738 L 0,-5.543 0,0 z"
             style="fill:#000000;fill-opacity:1;fill-rule:nonzero;stroke:none"
             id="path404" /></g></g></g><g
       id="g478"><g
         id="g480"
         clip-path="url(#clipPath482)"><g
           id="g486"
           transform="translate(441.4746,259.5117)"><path
             d="m 0,0 c 0,-6.278 -3.029,-7.035 -6.766,-7.035 -3.736,0 -6.765,0.757 -6.765,7.035 l 0,119.076 c 0,6.278 3.029,9.203 6.765,9.203 3.737,0 6.766,-2.925 6.766,-9.203 L 0,0 z"
             style="fill:#7f645b;fill-opacity:1;fill-rule:nonzero;stroke:none"
             id="path488" /></g><g
           id="g490"
           transform="translate(438.6973,259.5117)"><path
             d="m 0,0 c 0,-6.278 -0.99,-7.035 -2.209,-7.035 -1.215,0 -2.205,0.757 -2.205,7.035 l 0,119.076 c 0,6.278 0.99,9.203 2.205,9.203 1.219,0 2.209,-2.925 2.209,-9.203 L 0,0 z"
             style="fill:#c7b9ae;fill-opacity:1;fill-rule:nonzero;stroke:none"
             id="path492" /></g><g
           id="g494"
           transform="translate(175.1758,259.5117)"><path
             d="m 0,0 c 0,-6.278 -3.032,-7.035 -6.769,-7.035 -3.737,0 -6.764,0.757 -6.764,7.035 l 0,119.076 c 0,6.278 3.027,9.203 6.764,9.203 3.737,0 6.769,-2.925 6.769,-9.203 L 0,0 z"
             style="fill:#7f645b;fill-opacity:1;fill-rule:nonzero;stroke:none"
             id="path496" /></g><g
           id="g498"
           transform="translate(172.3936,259.5117)"><path
             d="m 0,0 c 0,-6.278 -0.987,-7.035 -2.205,-7.035 -1.218,0 -2.205,0.757 -2.205,7.035 l 0,119.076 c 0,6.278 0.987,9.203 2.205,9.203 1.218,0 2.205,-2.925 2.205,-9.203 L 0,0 z"
             style="fill:#c7b9ae;fill-opacity:1;fill-rule:nonzero;stroke:none"
             id="path500" /></g><g
           id="g502"
           transform="translate(523.0273,242.1904)"><path
             d="m 0,0 c 0,-6.278 -3.029,-7.036 -6.768,-7.036 -3.736,0 -6.763,0.758 -6.763,7.036 l 0,119.077 c 0,6.277 3.027,9.201 6.763,9.201 3.739,0 6.768,-2.924 6.768,-9.201 L 0,0 z"
             style="fill:#7f645b;fill-opacity:1;fill-rule:nonzero;stroke:none"
             id="path504" /></g><g
           id="g506"
           transform="translate(520.25,242.1904)"><path
             d="m 0,0 c 0,-6.278 -0.99,-7.036 -2.207,-7.036 -1.217,0 -2.205,0.758 -2.205,7.036 l 0,119.077 c 0,6.277 0.988,9.201 2.205,9.201 1.217,0 2.207,-2.924 2.207,-9.201 L 0,0 z"
             style="fill:#c7b9ae;fill-opacity:1;fill-rule:nonzero;stroke:none"
             id="path508" /></g><g
           id="g510"
           transform="translate(565.6035,161.3613)"><path
             d="m 0,0 c 0,-6.28 -3.025,-7.038 -6.762,-7.038 -3.738,0 -6.763,0.758 -6.763,7.038 l 0,119.076 c 0,6.276 3.025,9.201 6.763,9.201 3.737,0 6.762,-2.925 6.762,-9.201 L 0,0 z"
             style="fill:#7f645b;fill-opacity:1;fill-rule:nonzero;stroke:none"
             id="path512" /></g><g
           id="g514"
           transform="translate(562.8281,161.3613)"><path
             d="m 0,0 c 0,-6.28 -0.986,-7.038 -2.205,-7.038 -1.217,0 -2.207,0.758 -2.207,7.038 l 0,119.076 c 0,6.276 0.99,9.201 2.207,9.201 1.219,0 2.205,-2.925 2.205,-9.201 L 0,0 z"
             style="fill:#c7b9ae;fill-opacity:1;fill-rule:nonzero;stroke:none"
             id="path516" /></g><g
           id="g518"
           transform="translate(88.5713,250.126)"><path
             d="m 0,0 c 0,-6.276 -3.031,-7.037 -6.767,-7.037 -3.737,0 -6.766,0.761 -6.766,7.037 l 0,119.075 c 0,6.279 3.029,9.203 6.766,9.203 3.736,0 6.767,-2.924 6.767,-9.203 L 0,0 z"
             style="fill:#7f645b;fill-opacity:1;fill-rule:nonzero;stroke:none"
             id="path520" /></g><g
           id="g522"
           transform="translate(85.791,250.126)"><path
             d="m 0,0 c 0,-6.276 -0.99,-7.037 -2.207,-7.037 -1.215,0 -2.205,0.761 -2.205,7.037 l 0,119.075 c 0,6.279 0.99,9.203 2.205,9.203 1.217,0 2.207,-2.924 2.207,-9.203 L 0,0 z"
             style="fill:#c7b9ae;fill-opacity:1;fill-rule:nonzero;stroke:none"
             id="path524" /></g><g
           id="g526"
           transform="translate(85.6846,175.792)"><path
             d="m 0,0 c 0,-6.278 -3.031,-7.037 -6.767,-7.037 -3.737,0 -6.767,0.759 -6.767,7.037 l 0,119.077 c 0,6.278 3.03,9.203 6.767,9.203 3.736,0 6.767,-2.925 6.767,-9.203 L 0,0 z"
             style="fill:#7f645b;fill-opacity:1;fill-rule:nonzero;stroke:none"
             id="path528" /></g><g
           id="g530"
           transform="translate(82.9053,175.792)"><path
             d="m 0,0 c 0,-6.278 -0.991,-7.037 -2.208,-7.037 -1.215,0 -2.205,0.759 -2.205,7.037 l 0,119.077 c 0,6.278 0.99,9.203 2.205,9.203 1.217,0 2.208,-2.925 2.208,-9.203 L 0,0 z"
             style="fill:#c7b9ae;fill-opacity:1;fill-rule:nonzero;stroke:none"
             id="path532" /></g><g
           id="g534"
           transform="translate(160.7402,136.0996)"><path
             d="m 0,0 c 0,-6.276 -3.031,-7.037 -6.769,-7.037 -3.735,0 -6.763,0.761 -6.763,7.037 l 0,119.077 c 0,6.279 3.028,9.201 6.763,9.201 3.738,0 6.769,-2.922 6.769,-9.201 L 0,0 z"
             style="fill:#7f645b;fill-opacity:1;fill-rule:nonzero;stroke:none"
             id="path536" /></g><g
           id="g538"
           transform="translate(157.9609,136.0996)"><path
             d="m 0,0 c 0,-6.276 -0.989,-7.037 -2.207,-7.037 -1.218,0 -2.205,0.761 -2.205,7.037 l 0,119.077 c 0,6.279 0.987,9.201 2.205,9.201 1.218,0 2.207,-2.922 2.207,-9.201 L 0,0 z"
             style="fill:#c7b9ae;fill-opacity:1;fill-rule:nonzero;stroke:none"
             id="path540" /></g><g
           id="g542"
           transform="translate(482.6113,136.0996)"><path
             d="m 0,0 c 0,-6.276 -3.031,-7.037 -6.77,-7.037 -3.734,0 -6.761,0.761 -6.761,7.037 l 0,119.077 c 0,6.279 3.027,9.201 6.761,9.201 3.739,0 6.77,-2.922 6.77,-9.201 L 0,0 z"
             style="fill:#7f645b;fill-opacity:1;fill-rule:nonzero;stroke:none"
             id="path544" /></g><g
           id="g546"
           transform="translate(479.834,136.0996)"><path
             d="m 0,0 c 0,-6.276 -0.99,-7.037 -2.209,-7.037 -1.215,0 -2.205,0.761 -2.205,7.037 l 0,119.077 c 0,6.279 0.99,9.201 2.205,9.201 1.219,0 2.209,-2.922 2.209,-9.201 L 0,0 z"
             style="fill:#c7b9ae;fill-opacity:1;fill-rule:nonzero;stroke:none"
             id="path548" /></g><g
           id="g550"
           transform="translate(57.3711,255.8857)"><path
             d="m 0,0 c 0.102,-5.109 4.291,-9.235 9.427,-9.235 l 515.391,0 c 5.071,0 9.215,4.015 9.424,9.034 l -1.717,1.972 0.395,0.674 c 0.826,1.406 1.273,2.897 1.326,4.436 l -75.586,119.298 0,0.314 c 0,4.696 -13.205,9.426 -19.26,9.426 l -417.479,0 c -5.26,0 -11.611,-4.202 -11.611,-9.426 L -0.008,7.097 c 0.005,-1.27 0.32,-2.621 0.94,-3.924 L 0.059,2.747 0.912,2.426 0,0 z m 524.818,-11.401 -515.391,0 c -6.394,0 -11.595,5.2 -11.595,11.594 l 0.069,0.38 0.833,2.213 c -0.6,1.427 -0.902,2.907 -0.902,4.402 L 8.147,126.586 c -0.004,6.438 7.403,11.501 13.774,11.501 l 417.479,0 c 5.418,0 20.922,-4.41 21.411,-11.262 l 75.603,-119.32 0,-0.317 c 0,-1.785 -0.418,-3.513 -1.248,-5.151 l 1.248,-1.44 0,-0.404 c 0,-6.394 -5.197,-11.594 -11.596,-11.594"
             style="fill:#000000;fill-opacity:1;fill-rule:nonzero;stroke:none"
             id="path552" /></g><g
           id="g554"
           transform="translate(588.375,264.0029)"><path
             d="m 0,0 c 0,-5.713 -4.637,-10.344 -10.354,-10.344 l -507.057,0 c -5.716,0 -10.348,4.631 -10.348,10.344 l 7.446,117.447 c 0,5.717 6.782,10.346 12.498,10.346 l 413.813,0 c 5.717,0 20.025,-4.629 20.025,-10.346 L 0,0 z"
             style="fill:#32241b;fill-opacity:1;fill-rule:nonzero;stroke:none"
             id="path556" /></g><g
           id="g558"
           transform="translate(590.4258,256.6152)"><path
             d="M 0,0 C 0.016,0.02 0.037,0.043 0.055,0.066 0.037,0.043 0.016,0.021 0,0 m -6.371,-3.864 c -0.606,-0.109 -1.225,-0.188 -1.865,-0.188 0.64,0 1.256,0.079 1.865,0.188 m -519.149,0.002 c 0.616,-0.111 1.244,-0.19 1.892,-0.19 -0.648,0 -1.276,0.079 -1.892,0.19 m -5.196,2.604 c 0.238,-0.215 0.489,-0.42 0.747,-0.616 -0.258,0.198 -0.509,0.399 -0.747,0.616 m -1.132,1.239 c 0.153,-0.19 0.304,-0.387 0.469,-0.565 -0.165,0.18 -0.316,0.373 -0.469,0.565 m 3.95,-3.111 c -0.513,0.234 -1.009,0.497 -1.475,0.801 0.466,-0.302 0.96,-0.57 1.475,-0.801 m 1.819,-0.602 c -0.434,0.102 -0.853,0.232 -1.265,0.391 0.412,-0.155 0.831,-0.289 1.265,-0.391 m 521.655,0.421 c -0.461,-0.183 -0.939,-0.329 -1.433,-0.445 0.494,0.114 0.968,0.262 1.433,0.445 m 1.668,0.839 C -3.072,-2.666 -3.4,-2.844 -3.74,-3.006 c 0.34,0.158 0.666,0.34 0.984,0.534 m 1.201,0.879 c -0.136,-0.114 -0.271,-0.234 -0.418,-0.343 0.147,0.107 0.28,0.229 0.418,0.343 m -520.809,126.428 c 0,5.717 6.782,10.346 12.498,10.346 l 413.813,0 c 5.717,0 20.026,-4.629 20.026,-10.346 L -2.051,7.388 c 0,-5.713 -4.637,-10.344 -10.353,-10.344 l -507.058,0 c -5.716,0 -10.348,4.631 -10.348,10.344 l 7.446,117.447 z M 2.277,6.459 -73.311,125.764 c 0,5.808 -14.539,10.51 -20.343,10.51 l -419.645,0 c -5.805,0 -12.694,-4.702 -12.694,-10.51 L -534.142,6.459 c 0,-1.611 0.393,-3.117 1.04,-4.482 -0.016,0.035 -0.038,0.066 -0.053,0.101 l -0.987,-2.614 c 0,-5.808 4.708,-10.515 10.514,-10.515 l 515.392,0.002 c 5.804,0 10.513,4.705 10.513,10.513 l -1.48,1.702 c 0.92,1.561 1.48,3.351 1.48,5.293"
             style="fill:#000000;fill-opacity:1;fill-rule:nonzero;stroke:none"
             id="path560" /></g><g
           id="g562"><g
             id="g564" /><g
             id="g570"><g
               clip-path="url(#clipPath566)"
               opacity="0.199997"
               id="g572"><g
                 transform="translate(551.1445,324.25)"
                 id="g574"><path
                   d="m 0,0 -36.746,57.2 c 0,5.717 -14.309,10.346 -20.025,10.346 l -45.827,0 L -489.72,-64.26 c 1.57,-3.721 5.248,-6.331 9.539,-6.331 l 365.997,0 L 0,0 z"
                   style="fill:#ffffff;fill-opacity:1;fill-rule:nonzero;stroke:none"
                   id="path576" /></g><g
                 transform="translate(61.8672,288.1943)"
                 id="g578"><path
                   d="m 0,0 343.193,103.602 -119.493,0 L 5.356,62.3 0,0 z"
                   style="fill:#ffffff;fill-opacity:1;fill-rule:nonzero;stroke:none"
                   id="path580" /></g></g></g></g><g
           id="g582"
           transform="translate(483.0684,260.0479)"><path
             d="m 0,0 c 0,-2.346 -3.238,-4.247 -7.234,-4.247 -3.995,0 -7.231,1.901 -7.231,4.247 0,2.348 3.236,4.247 7.231,4.247 C -3.238,4.247 0,2.348 0,0"
             style="fill:#7f645b;fill-opacity:1;fill-rule:nonzero;stroke:none"
             id="path584" /></g><g
           id="g586"
           transform="translate(566.0645,285.3076)"><path
             d="m 0,0 c 0,-2.347 -3.24,-4.246 -7.234,-4.246 -3.993,0 -7.233,1.899 -7.233,4.246 0,2.347 3.24,4.248 7.233,4.248 C -3.24,4.248 0,2.347 0,0"
             style="fill:#7f645b;fill-opacity:1;fill-rule:nonzero;stroke:none"
             id="path588" /></g><g
           id="g590"
           transform="translate(523.4824,366.1377)"><path
             d="m 0,0 c 0,-2.346 -3.234,-4.247 -7.232,-4.247 -3.993,0 -7.233,1.901 -7.233,4.247 0,2.349 3.24,4.248 7.233,4.248 C -3.234,4.248 0,2.349 0,0"
             style="fill:#7f645b;fill-opacity:1;fill-rule:nonzero;stroke:none"
             id="path592" /></g><g
           id="g594"
           transform="translate(441.9316,383.459)"><path
             d="m 0,0 c 0,-2.347 -3.238,-4.246 -7.234,-4.246 -3.995,0 -7.233,1.899 -7.233,4.246 0,2.348 3.238,4.249 7.233,4.249 C -3.238,4.249 0,2.348 0,0"
             style="fill:#7f645b;fill-opacity:1;fill-rule:nonzero;stroke:none"
             id="path596" /></g><g
           id="g598"
           transform="translate(175.6309,383.459)"><path
             d="m 0,0 c 0,-2.347 -3.24,-4.246 -7.234,-4.246 -3.992,0 -7.235,1.899 -7.235,4.246 0,2.348 3.243,4.249 7.235,4.249 C -3.24,4.249 0,2.348 0,0"
             style="fill:#7f645b;fill-opacity:1;fill-rule:nonzero;stroke:none"
             id="path600" /></g><g
           id="g602"
           transform="translate(161.1953,260.0479)"><path
             d="m 0,0 c 0,-2.346 -3.239,-4.247 -7.232,-4.247 -3.995,0 -7.235,1.901 -7.235,4.247 0,2.348 3.24,4.247 7.235,4.247 C -3.239,4.247 0,2.348 0,0"
             style="fill:#7f645b;fill-opacity:1;fill-rule:nonzero;stroke:none"
             id="path604" /></g><g
           id="g606"
           transform="translate(86.1387,299.7402)"><path
             d="m 0,0 c 0,-2.349 -3.238,-4.248 -7.232,-4.248 -3.994,0 -7.233,1.899 -7.233,4.248 0,2.346 3.239,4.247 7.233,4.247 C -3.238,4.247 0,2.346 0,0"
             style="fill:#7f645b;fill-opacity:1;fill-rule:nonzero;stroke:none"
             id="path608" /></g><g
           id="g610"
           transform="translate(89.0264,374.0742)"><path
             d="m 0,0 c 0,-2.346 -3.239,-4.248 -7.232,-4.248 -3.995,0 -7.233,1.902 -7.233,4.248 0,2.348 3.238,4.246 7.233,4.246 C -3.239,4.246 0,2.348 0,0"
             style="fill:#7f645b;fill-opacity:1;fill-rule:nonzero;stroke:none"
             id="path612" /></g></g></g></g></svg>